<svg xmlns="http://www.w3.org/2000/svg" width="256" height="256" viewBox="0 0 100 100"><rect width="100" height="100" rx="20" fill="#3178c6"></rect><path fill="#fff" d="M49.05 27.77L47.86 33.09L36.59 33.09L28.26 72.22L13.14 72.22L21.47 33.09L10.34 33.09L11.60 27.77L49.05 27.77ZM64.17 72.22L44.08 72.22L53.53 27.77L72.36 27.77Q76.70 27.77 79.96 28.65Q83.22 29.52 85.35 31.55Q87.48 33.58 88.57 36.87Q89.66 40.16 89.66 44.92L89.66 44.92Q89.66 50.03 88.36 54.93Q87.06 59.83 84.06 63.68Q81.04 67.53 76.18 69.88Q71.31 72.22 64.17 72.22L64.17 72.22ZM60.25 67.32L63.27 67.32Q65.57 67.32 67.36 65.40Q69.14 63.47 70.44 60.50Q71.73 57.52 72.61 53.92Q73.48 50.31 74.01 46.95Q74.53 43.59 74.78 40.93Q75.02 38.27 75.02 37.15L75.02 37.15Q75.02 34.98 74.15 33.76Q73.27 32.53 71.10 32.53L71.10 32.53L67.75 32.53L60.25 67.32Z"></path></svg>